<svg version="1.1" id="Layer_1" xmlns="http://www.w3.org/2000/svg" xmlns:xlink="http://www.w3.org/1999/xlink" x="0px" y="0px"
	 width="100%" viewBox="0 0 580 386" enable-background="new 0 0 580 386" xml:space="preserve">
<path fill="transparent" opacity="1.000000" stroke="none" 
	d="
M408.000000,387.000000 
	C272.000031,387.000000 136.500061,387.000000 1.000073,387.000000 
	C1.000048,258.333405 1.000048,129.666794 1.000024,1.000142 
	C194.333237,1.000095 387.666473,1.000095 580.999756,1.000047 
	C580.999878,129.666519 580.999878,258.333038 580.999939,386.999786 
	C523.500000,387.000000 466.000000,387.000000 408.000000,387.000000 
M208.943298,161.675613 
	C207.744888,163.314056 205.177200,165.530991 205.583069,166.491699 
	C207.425232,170.852264 210.105759,174.858658 212.484589,178.992493 
	C213.106293,178.808609 213.727997,178.624710 214.349716,178.440826 
	C214.863052,172.099640 215.376404,165.758438 215.926743,158.960358 
	C212.963303,159.834335 210.975449,160.420593 209.268951,160.381958 
	C212.142044,158.448120 215.082504,156.606476 217.876953,154.564987 
	C232.421051,143.939774 245.954620,132.132706 257.211578,118.052124 
	C263.382904,110.332863 268.599792,101.823349 273.863892,93.429893 
	C274.869293,91.826836 274.913086,87.796440 273.940643,87.176735 
	C272.195435,86.064590 269.337830,86.563019 266.955292,86.654175 
	C266.037842,86.689278 265.045990,87.313408 264.261444,87.900772 
	C255.261383,94.638725 245.844376,100.912148 237.448395,108.338112 
	C229.376526,115.477409 221.695602,123.295189 215.076294,131.777359 
	C207.671555,141.266037 201.604660,151.805695 195.108185,161.985382 
	C194.460754,162.999863 194.871933,164.689941 194.791794,166.066452 
	C196.253387,165.878586 197.828964,165.976120 199.154175,165.446808 
	C202.498840,164.110855 205.730789,162.492691 208.943298,161.675613 
M254.304474,288.113800 
	C293.387238,304.142120 338.997894,293.117859 366.547180,260.828918 
	C388.198547,235.452576 396.913147,206.086121 390.163422,173.415344 
	C380.313049,125.736511 339.318329,93.097382 290.595856,92.388893 
	C286.281097,92.326149 284.890259,93.455208 284.922760,97.959496 
	C285.128418,126.451866 284.931305,154.947113 285.128265,183.439606 
	C285.159241,187.921906 283.790161,189.042175 279.449341,189.013702 
	C251.623199,188.831161 223.795303,188.920532 195.967972,188.920502 
	C194.055634,188.920502 192.143295,188.920502 190.317719,188.920502 
	C186.985016,226.846405 209.925537,270.619232 254.304474,288.113800 
M365.506805,283.066956 
	C358.145630,287.894928 351.164703,293.475891 343.356506,297.418671 
	C311.841919,313.332062 279.233063,314.926239 246.787033,301.162781 
	C208.352921,284.859222 184.854111,255.615616 176.848267,214.467499 
	C175.244354,206.223694 175.012985,197.712845 174.116714,189.014221 
	C171.077133,189.014221 167.985779,189.014221 164.912399,189.014221 
	C161.268005,226.778763 181.363205,278.455841 229.863098,305.045593 
	C279.410919,332.209930 340.744110,323.498962 380.166962,284.051575 
	C420.440308,243.753143 429.393585,182.348312 402.221954,133.017670 
	C375.448669,84.410118 323.541870,63.913834 285.423737,67.825668 
	C285.423737,71.019806 285.423737,74.221405 285.423737,77.628410 
	C287.298431,77.712692 288.772919,77.860786 290.243988,77.832260 
	C302.682251,77.591087 314.712433,79.706955 326.595093,83.374313 
	C371.490875,97.230545 405.315765,141.027893 406.997650,187.945801 
	C408.360474,225.964050 394.411285,257.412628 365.506805,283.066956 
M236.069794,95.574242 
	C233.355652,92.641182 232.044556,95.595001 230.524155,97.005592 
	C228.115311,99.240410 226.350616,101.178978 222.064316,100.421890 
	C208.902817,98.097206 195.575012,96.690498 182.287674,95.133339 
	C180.723648,94.950058 179.009155,96.050545 177.364426,96.555916 
	C178.124847,98.075882 178.498856,100.083420 179.705795,101.039993 
	C191.096237,110.067535 202.628693,118.915924 214.519394,128.125153 
	C221.462143,121.126152 228.112793,113.938141 235.312698,107.350433 
	C239.420654,103.591782 238.191238,100.056389 236.069794,95.574242 
M264.108002,183.282211 
	C264.710999,181.826385 265.979431,180.288239 265.811096,178.927856 
	C264.534393,168.609528 262.953705,158.329163 261.513458,148.030579 
	C260.474945,140.604385 258.480469,132.918732 266.499908,127.686615 
	C266.686676,127.564758 266.631104,127.071487 266.734650,126.494667 
	C264.731384,124.825165 263.972046,120.800499 259.483276,123.599434 
	C258.598633,124.151062 256.196411,122.227028 254.074493,124.564934 
	C248.178162,131.061493 241.853149,137.184097 235.477936,143.222641 
	C233.292206,145.292923 232.472687,146.562073 234.705200,149.303391 
	C241.394608,157.517365 247.626617,166.103210 254.290787,174.338654 
	C257.017670,177.708496 260.395264,180.551788 264.108002,183.282211 
M184.907700,146.014954 
	C184.043411,146.354691 183.179123,146.694443 182.314835,147.034195 
	C185.195023,149.452347 187.887726,152.168518 191.041122,154.152374 
	C192.441269,155.033249 195.725494,155.253540 196.497833,154.352936 
	C198.664825,151.826019 199.969940,148.559967 202.112030,144.686859 
	C195.934570,145.181320 190.848038,145.588470 184.907700,146.014954 
z"/>
<path fill="#d3e0d3" opacity="1.000000" stroke="none" 
	d="
M253.940308,287.989136 
	C209.925537,270.619232 186.985016,226.846405 190.317719,188.920502 
	C192.143295,188.920502 194.055634,188.920502 195.967972,188.920502 
	C223.795303,188.920532 251.623199,188.831161 279.449341,189.013702 
	C283.790161,189.042175 285.159241,187.921906 285.128265,183.439606 
	C284.931305,154.947113 285.128418,126.451866 284.922760,97.959496 
	C284.890259,93.455208 286.281097,92.326149 290.595856,92.388893 
	C339.318329,93.097382 380.313049,125.736511 390.163422,173.415344 
	C396.913147,206.086121 388.198547,235.452576 366.547180,260.828918 
	C338.997894,293.117859 293.387238,304.142120 253.940308,287.989136 
M349.591309,188.932693 
	C359.647064,188.932693 369.702789,188.932693 380.154785,188.932693 
	C379.329041,172.928925 374.716339,159.088837 366.527283,146.457962 
	C365.918976,145.519699 363.306671,145.269287 361.836304,145.609116 
	C356.021820,146.952957 350.314056,148.750122 344.523468,150.207413 
	C338.003174,151.848328 338.122925,151.748749 339.030609,158.418854 
	C340.388245,168.395203 341.525848,178.401520 342.823273,188.932602 
	C344.708191,188.932602 346.664764,188.932602 349.591309,188.932693 
M366.480103,200.283035 
	C358.430023,200.283035 350.379944,200.283035 342.956177,200.283035 
	C341.240967,212.169556 339.781525,222.679810 338.173035,233.167206 
	C337.740814,235.985336 339.223267,236.424805 341.449585,236.945236 
	C348.235168,238.531464 355.032806,240.141571 361.680023,242.210526 
	C364.692383,243.148117 366.495178,242.762497 367.621155,239.892120 
	C371.367798,230.341187 376.163635,221.033676 378.513428,211.147079 
	C381.220795,199.755905 382.616089,200.221436 369.467010,200.283157 
	C368.801086,200.286285 368.135162,200.283539 366.480103,200.283035 
M209.455765,230.986313 
	C210.277573,232.621460 211.082962,234.265106 211.923981,235.890305 
	C215.831238,243.440811 215.826675,243.412491 223.854477,240.960449 
	C226.710312,240.088150 229.606293,239.340927 232.501266,238.604813 
	C236.282822,237.643295 240.081573,236.749496 243.734634,235.860229 
	C242.548660,227.646530 241.484940,220.094803 240.358337,212.552460 
	C239.768753,208.605316 240.385773,202.991455 238.071274,201.180542 
	C235.428040,199.112396 230.131897,200.342117 225.987091,200.305710 
	C218.090591,200.236359 210.193054,200.285599 201.881866,200.285599 
	C202.195923,211.699097 205.214828,221.106964 209.455765,230.986313 
M296.878021,179.459473 
	C296.878021,182.527313 296.878021,185.595169 296.878021,188.927505 
	C307.638062,188.927505 317.452820,189.023972 327.259979,188.794342 
	C328.372467,188.768295 330.460846,186.811310 330.375336,185.913742 
	C329.430206,175.994354 328.202026,166.099594 326.853027,156.225128 
	C326.731476,155.335388 325.192902,153.909134 324.382446,153.955505 
	C315.324707,154.474014 306.280762,155.233124 296.877808,155.954697 
	C296.877808,163.865417 296.877808,171.168915 296.878021,179.459473 
M263.879028,233.160583 
	C270.790192,232.702179 277.701385,232.243774 285.041260,231.756943 
	C285.041260,226.847443 285.117279,222.384598 285.022064,217.925385 
	C284.902191,212.312927 286.750214,204.636597 283.847626,201.676376 
	C280.968140,198.739761 273.246277,200.452713 267.643494,200.313217 
	C262.257202,200.179138 256.864929,200.284256 250.647385,200.284256 
	C252.163361,212.382065 253.495377,223.011749 254.906799,234.275101 
	C258.149048,233.866501 260.560394,233.562607 263.879028,233.160583 
M296.875336,212.514221 
	C296.875336,218.915375 296.875336,225.316513 296.875336,231.566956 
	C306.291565,232.427536 314.861786,233.160553 323.418976,234.022919 
	C326.046387,234.287704 326.844360,233.194351 327.122925,230.720917 
	C328.123871,221.832687 329.244476,212.955109 330.519531,204.102264 
	C330.915375,201.354156 329.800934,200.380020 327.386841,200.333344 
	C323.734344,200.262711 320.079865,200.289108 316.426208,200.286133 
	C310.024170,200.280914 303.622101,200.284668 296.875153,200.284668 
	C296.875153,204.582352 296.875153,208.052551 296.875336,212.514221 
M259.335327,245.628998 
	C259.537872,247.219009 259.373535,248.974136 260.002655,250.372177 
	C264.012573,259.282867 268.324005,268.058807 272.278595,276.993103 
	C274.793976,282.675964 279.268982,283.205231 284.683441,282.682526 
	C284.683441,269.742188 284.683441,257.049347 284.683441,243.508942 
	C276.209717,244.096603 268.144257,244.655960 259.335327,245.628998 
M296.876526,119.504471 
	C296.876526,127.577347 296.876526,135.650223 296.876526,144.386002 
	C306.103973,143.684967 314.429443,143.052460 323.316040,142.377335 
	C319.918671,130.306503 315.344238,119.907860 309.156036,110.212662 
	C305.621857,104.675644 303.863617,104.017952 296.876343,105.710022 
	C296.876343,109.907555 296.876343,114.207581 296.876526,119.504471 
M298.444855,282.926544 
	C303.937317,283.129181 307.917542,281.111481 310.279449,275.809692 
	C312.915192,269.893188 316.202759,264.267578 318.850677,258.355896 
	C320.644135,254.351761 321.823364,250.072510 323.510376,245.250137 
	C314.165955,244.658188 305.811981,244.128967 296.877625,243.562988 
	C296.877625,252.288330 296.791962,260.080841 296.908630,267.870331 
	C296.982635,272.810760 297.357758,277.746674 298.444855,282.926544 
M331.562134,256.988403 
	C328.819824,263.481171 326.077545,269.973969 322.877319,277.550964 
	C336.832153,271.816681 348.041931,264.217865 358.138275,252.750946 
	C349.665710,250.677933 342.392029,248.898239 334.913116,247.068344 
	C333.736664,250.616638 332.800354,253.440659 331.562134,256.988403 
M257.887146,274.451263 
	C254.651489,266.647797 251.499435,258.807556 248.099670,251.076263 
	C247.518234,249.754059 245.684387,247.828232 244.758926,247.996384 
	C238.049240,249.215530 231.424225,250.900635 223.760193,252.672256 
	C233.462128,264.107788 244.364670,271.340637 256.706085,276.563812 
	C256.966187,276.673889 257.736603,275.578186 257.887146,274.451263 
M350.955078,127.530357 
	C342.812744,120.481033 334.187439,114.251068 323.532715,110.778221 
	C327.179321,120.260765 330.559418,129.214630 334.133087,138.090530 
	C334.492737,138.983765 336.171814,140.107147 336.988037,139.935074 
	C343.717682,138.516403 350.388092,136.816818 357.076477,135.202347 
	C357.375122,134.557861 357.673767,133.913361 357.972412,133.268860 
	C355.805206,131.521973 353.638000,129.775101 350.955078,127.530357 
z"/>
<path fill="#cb8c31" opacity="1.000000" stroke="none" 
	d="
M365.769501,282.826538 
	C394.411285,257.412628 408.360474,225.964050 406.997650,187.945801 
	C405.315765,141.027893 371.490875,97.230545 326.595093,83.374313 
	C314.712433,79.706955 302.682251,77.591087 290.243988,77.832260 
	C288.772919,77.860786 287.298431,77.712692 285.423737,77.628410 
	C285.423737,74.221405 285.423737,71.019806 285.423737,67.825668 
	C323.541870,63.913834 375.448669,84.410118 402.221954,133.017670 
	C429.393585,182.348312 420.440308,243.753143 380.166962,284.051575 
	C340.744110,323.498962 279.410919,332.209930 229.863098,305.045593 
	C181.363205,278.455841 161.268005,226.778763 164.912399,189.014221 
	C167.985779,189.014221 171.077133,189.014221 174.116714,189.014221 
	C175.012985,197.712845 175.244354,206.223694 176.848267,214.467499 
	C184.854111,255.615616 208.352921,284.859222 246.787033,301.162781 
	C279.233063,314.926239 311.841919,313.332062 343.356506,297.418671 
	C351.164703,293.475891 358.145630,287.894928 365.769501,282.826538 
z"/>
<path fill="#cb8c31" opacity="1.000000" stroke="none" 
	d="
M209.007889,160.987610 
	C205.730789,162.492691 202.498840,164.110855 199.154175,165.446808 
	C197.828964,165.976120 196.253387,165.878586 194.791794,166.066452 
	C194.871933,164.689941 194.460754,162.999863 195.108185,161.985382 
	C201.604660,151.805695 207.671555,141.266037 215.076294,131.777359 
	C221.695602,123.295189 229.376526,115.477409 237.448395,108.338112 
	C245.844376,100.912148 255.261383,94.638725 264.261444,87.900772 
	C265.045990,87.313408 266.037842,86.689278 266.955292,86.654175 
	C269.337830,86.563019 272.195435,86.064590 273.940643,87.176735 
	C274.913086,87.796440 274.869293,91.826836 273.863892,93.429893 
	C268.599792,101.823349 263.382904,110.332863 257.211578,118.052124 
	C245.954620,132.132706 232.421051,143.939774 217.876953,154.564987 
	C215.082504,156.606476 212.142044,158.448120 209.134964,160.691406 
	C209.000977,161.000839 209.007889,160.987610 209.007889,160.987610 
z"/>
<path fill="#cb8c31" opacity="1.000000" stroke="none" 
	d="
M236.323853,95.828400 
	C238.191238,100.056389 239.420654,103.591782 235.312698,107.350433 
	C228.112793,113.938141 221.462143,121.126152 214.519394,128.125153 
	C202.628693,118.915924 191.096237,110.067535 179.705795,101.039993 
	C178.498856,100.083420 178.124847,98.075882 177.364426,96.555916 
	C179.009155,96.050545 180.723648,94.950058 182.287674,95.133339 
	C195.575012,96.690498 208.902817,98.097206 222.064316,100.421890 
	C226.350616,101.178978 228.115311,99.240410 230.524155,97.005592 
	C232.044556,95.595001 233.355652,92.641182 236.323853,95.828400 
z"/>
<path fill="#cb8c31" opacity="1.000000" stroke="none" 
	d="
M263.792419,183.458405 
	C260.395264,180.551788 257.017670,177.708496 254.290787,174.338654 
	C247.626617,166.103210 241.394608,157.517365 234.705200,149.303391 
	C232.472687,146.562073 233.292206,145.292923 235.477936,143.222641 
	C241.853149,137.184097 248.178162,131.061493 254.074493,124.564934 
	C256.196411,122.227028 258.598633,124.151062 259.483276,123.599434 
	C263.972046,120.800499 264.731384,124.825165 266.734650,126.494667 
	C266.631104,127.071487 266.686676,127.564758 266.499908,127.686615 
	C258.480469,132.918732 260.474945,140.604385 261.513458,148.030579 
	C262.953705,158.329163 264.534393,168.609528 265.811096,178.927856 
	C265.979431,180.288239 264.710999,181.826385 263.792419,183.458405 
z"/>
<path fill="#cb8c31" opacity="1.000000" stroke="none" 
	d="
M185.334610,146.005280 
	C190.848038,145.588470 195.934570,145.181320 202.112030,144.686859 
	C199.969940,148.559967 198.664825,151.826019 196.497833,154.352936 
	C195.725494,155.253540 192.441269,155.033249 191.041122,154.152374 
	C187.887726,152.168518 185.195023,149.452347 182.314835,147.034195 
	C183.179123,146.694443 184.043411,146.354691 185.334610,146.005280 
z"/>
<path fill="#cb8c31" opacity="1.000000" stroke="none" 
	d="
M208.994293,161.003845 
	C210.975449,160.420593 212.963303,159.834335 215.926743,158.960358 
	C215.376404,165.758438 214.863052,172.099640 214.349716,178.440826 
	C213.727997,178.624710 213.106293,178.808609 212.484589,178.992493 
	C210.105759,174.858658 207.425232,170.852264 205.583069,166.491699 
	C205.177200,165.530991 207.744888,163.314056 208.975586,161.331604 
	C209.007889,160.987610 209.000977,161.000839 208.994293,161.003845 
z"/>
<path fill="transparent" opacity="1.000000" stroke="none" 
	d="
M349.106323,188.932648 
	C346.664764,188.932602 344.708191,188.932602 342.823273,188.932602 
	C341.525848,178.401520 340.388245,168.395203 339.030609,158.418854 
	C338.122925,151.748749 338.003174,151.848328 344.523468,150.207413 
	C350.314056,148.750122 356.021820,146.952957 361.836304,145.609116 
	C363.306671,145.269287 365.918976,145.519699 366.527283,146.457962 
	C374.716339,159.088837 379.329041,172.928925 380.154785,188.932693 
	C369.702789,188.932693 359.647064,188.932693 349.106323,188.932648 
z"/>
<path fill="transparent" opacity="1.000000" stroke="none" 
	d="
M366.974670,200.283279 
	C368.135162,200.283539 368.801086,200.286285 369.467010,200.283157 
	C382.616089,200.221436 381.220795,199.755905 378.513428,211.147079 
	C376.163635,221.033676 371.367798,230.341187 367.621155,239.892120 
	C366.495178,242.762497 364.692383,243.148117 361.680023,242.210526 
	C355.032806,240.141571 348.235168,238.531464 341.449585,236.945236 
	C339.223267,236.424805 337.740814,235.985336 338.173035,233.167206 
	C339.781525,222.679810 341.240967,212.169556 342.956177,200.283035 
	C350.379944,200.283035 358.430023,200.283035 366.974670,200.283279 
z"/>
<path fill="transparent" opacity="1.000000" stroke="none" 
	d="
M209.295547,230.643616 
	C205.214828,221.106964 202.195923,211.699097 201.881866,200.285599 
	C210.193054,200.285599 218.090591,200.236359 225.987091,200.305710 
	C230.131897,200.342117 235.428040,199.112396 238.071274,201.180542 
	C240.385773,202.991455 239.768753,208.605316 240.358337,212.552460 
	C241.484940,220.094803 242.548660,227.646530 243.734634,235.860229 
	C240.081573,236.749496 236.282822,237.643295 232.501266,238.604813 
	C229.606293,239.340927 226.710312,240.088150 223.854477,240.960449 
	C215.826675,243.412491 215.831238,243.440811 211.923981,235.890305 
	C211.082962,234.265106 210.277573,232.621460 209.295547,230.643616 
z"/>
<path fill="transparent" opacity="1.000000" stroke="none" 
	d="
M296.877930,178.965942 
	C296.877808,171.168915 296.877808,163.865417 296.877808,155.954697 
	C306.280762,155.233124 315.324707,154.474014 324.382446,153.955505 
	C325.192902,153.909134 326.731476,155.335388 326.853027,156.225128 
	C328.202026,166.099594 329.430206,175.994354 330.375336,185.913742 
	C330.460846,186.811310 328.372467,188.768295 327.259979,188.794342 
	C317.452820,189.023972 307.638062,188.927505 296.878021,188.927505 
	C296.878021,185.595169 296.878021,182.527313 296.877930,178.965942 
z"/>
<path fill="transparent" opacity="1.000000" stroke="none" 
	d="
M263.425415,233.209641 
	C260.560394,233.562607 258.149048,233.866501 254.906799,234.275101 
	C253.495377,223.011749 252.163361,212.382065 250.647385,200.284256 
	C256.864929,200.284256 262.257202,200.179138 267.643494,200.313217 
	C273.246277,200.452713 280.968140,198.739761 283.847626,201.676376 
	C286.750214,204.636597 284.902191,212.312927 285.022064,217.925385 
	C285.117279,222.384598 285.041260,226.847443 285.041260,231.756943 
	C277.701385,232.243774 270.790192,232.702179 263.425415,233.209641 
z"/>
<path fill="transparent" opacity="1.000000" stroke="none" 
	d="
M296.875244,212.018494 
	C296.875153,208.052551 296.875153,204.582352 296.875153,200.284668 
	C303.622101,200.284668 310.024170,200.280914 316.426208,200.286133 
	C320.079865,200.289108 323.734344,200.262711 327.386841,200.333344 
	C329.800934,200.380020 330.915375,201.354156 330.519531,204.102264 
	C329.244476,212.955109 328.123871,221.832687 327.122925,230.720917 
	C326.844360,233.194351 326.046387,234.287704 323.418976,234.022919 
	C314.861786,233.160553 306.291565,232.427536 296.875336,231.566956 
	C296.875336,225.316513 296.875336,218.915375 296.875244,212.018494 
z"/>
<path fill="transparent" opacity="1.000000" stroke="none" 
	d="
M259.707092,245.422150 
	C268.144257,244.655960 276.209717,244.096603 284.683441,243.508942 
	C284.683441,257.049347 284.683441,269.742188 284.683441,282.682526 
	C279.268982,283.205231 274.793976,282.675964 272.278595,276.993103 
	C268.324005,268.058807 264.012573,259.282867 260.002655,250.372177 
	C259.373535,248.974136 259.537872,247.219009 259.707092,245.422150 
z"/>
<path fill="transparent" opacity="1.000000" stroke="none" 
	d="
M296.876434,119.006042 
	C296.876343,114.207581 296.876343,109.907555 296.876343,105.710022 
	C303.863617,104.017952 305.621857,104.675644 309.156036,110.212662 
	C315.344238,119.907860 319.918671,130.306503 323.316040,142.377335 
	C314.429443,143.052460 306.103973,143.684967 296.876526,144.386002 
	C296.876526,135.650223 296.876526,127.577347 296.876434,119.006042 
z"/>
<path fill="transparent" opacity="1.000000" stroke="none" 
	d="
M298.021332,282.805603 
	C297.357758,277.746674 296.982635,272.810760 296.908630,267.870331 
	C296.791962,260.080841 296.877625,252.288330 296.877625,243.562988 
	C305.811981,244.128967 314.165955,244.658188 323.510376,245.250137 
	C321.823364,250.072510 320.644135,254.351761 318.850677,258.355896 
	C316.202759,264.267578 312.915192,269.893188 310.279449,275.809692 
	C307.917542,281.111481 303.937317,283.129181 298.021332,282.805603 
z"/>
<path fill="transparent" opacity="1.000000" stroke="none" 
	d="
M331.713074,256.626526 
	C332.800354,253.440659 333.736664,250.616638 334.913116,247.068344 
	C342.392029,248.898239 349.665710,250.677933 358.138275,252.750946 
	C348.041931,264.217865 336.832153,271.816681 322.877319,277.550964 
	C326.077545,269.973969 328.819824,263.481171 331.713074,256.626526 
z"/>
<path fill="transparent" opacity="1.000000" stroke="none" 
	d="
M258.078064,274.748108 
	C257.736603,275.578186 256.966187,276.673889 256.706085,276.563812 
	C244.364670,271.340637 233.462128,264.107788 223.760193,252.672256 
	C231.424225,250.900635 238.049240,249.215530 244.758926,247.996384 
	C245.684387,247.828232 247.518234,249.754059 248.099670,251.076263 
	C251.499435,258.807556 254.651489,266.647797 258.078064,274.748108 
z"/>
<path fill="transparent" opacity="1.000000" stroke="none" 
	d="
M351.212921,127.779282 
	C353.638000,129.775101 355.805206,131.521973 357.972412,133.268860 
	C357.673767,133.913361 357.375122,134.557861 357.076477,135.202347 
	C350.388092,136.816818 343.717682,138.516403 336.988037,139.935074 
	C336.171814,140.107147 334.492737,138.983765 334.133087,138.090530 
	C330.559418,129.214630 327.179321,120.260765 323.532715,110.778221 
	C334.187439,114.251068 342.812744,120.481033 351.212921,127.779282 
z"/>
</svg>